<svg version="1.1" viewBox="0 0 96 96" xmlns="http://www.w3.org/2000/svg" xmlns:xlink="http://www.w3.org/1999/xlink" id="Icons_ThumbsUpSign" overflow="hidden"><path d=" M 88 47 C 88 43.7 85.3 41 82 41 L 63 41 C 61.4 41 60.1 39.7 60 38.1 C 60.1 36.3 63 32.7 63 19 C 63 15.7 60.3 13 57 13 C 53.7 13 51 15.7 51 19 C 51 34.2 33.3 42.8 33 43 L 33 75 C 40.1 75 40.6 83 54 83 C 58.5 83 72 83 72 83 C 75.3 83 78 80.3 78 77 C 78 75.4 77.4 74 76.4 73 C 76.6 73 76.8 73 77 73 C 80.3 73 83 70.3 83 67 C 83 65.4 82.4 63.9 81.3 62.8 C 84 62.2 86 59.8 86 57 C 86 55.3 85.3 53.7 84.1 52.6 C 86.4 51.8 88 49.6 88 47 Z" fill="#FFFFFF" fill-opacity="1"/><path d=" M 23 38 L 8 38 L 8 80 L 23 80 C 25.2 80 27 78.2 27 76 L 27 42 C 27 39.8 25.2 38 23 38 Z" fill="#FFFFFF" fill-opacity="1"/></svg>